<svg fill="none" height="48" viewBox="0 0 48 48" width="48" xmlns="http://www.w3.org/2000/svg"><path d="m9 19.0345c0-5.7254 3.8117-11.0345 9.0312-11.0345 3.6221 0 6.3098 2.382 7.9688 5.7611 1.6589-3.3789 4.3466-5.7611 7.9688-5.7611 5.2201 0 9.0312 5.31 9.0312 11.0345 0 12.2543-17 20.9655-17 20.9655s-11.4513-5.5128-15.5569-14.5556h10.1417l1.612-2.8656 1.8829 6.5904 4.4094-5.6692h5.5109v-2h-6.4891l-2.5906 3.3308-2.1171-7.4096-3.388 6.0232h-9.73536c.21198.6844.46876 1.3513.76326 2l-4.4431-.0001v-2l3.67984.0001c-.43341-1.3991-.67984-2.8713-.67984-4.4099z" fill="#333"/></svg>